<?xml version="1.0" encoding="UTF-8" standalone="no"?>
<!DOCTYPE svg PUBLIC "-//W3C//DTD SVG 1.1//EN"
 "http://www.w3.org/Graphics/SVG/1.1/DTD/svg11.dtd">
<!-- Generated by graphviz version 2.26.3 (20100126.1600)
 -->
<!-- Title: controllers_diagram Pages: 1 -->
<svg width="530pt" height="312pt"
 viewBox="0.00 0.00 530.00 312.33" xmlns="http://www.w3.org/2000/svg" xmlns:xlink="http://www.w3.org/1999/xlink">
<g id="graph1" class="graph" transform="scale(1 1) rotate(0) translate(4 308.329)">
<title>controllers_diagram</title>
<polygon fill="white" stroke="white" points="-4,5 -4,-308.329 527,-308.329 527,5 -4,5"/>
<!-- _diagram_info -->
<g id="node1" class="node"><title>_diagram_info</title>
<text text-anchor="start" x="279" y="-78.3" font-family="Times Roman,serif" font-size="13.00">Controllers diagram</text>
<text text-anchor="start" x="279" y="-61.3" font-family="Times Roman,serif" font-size="13.00">Date: Feb 23 2013 &#45; 19:19</text>
<text text-anchor="start" x="279" y="-44.3" font-family="Times Roman,serif" font-size="13.00">Migration version: 20130222213412</text>
<text text-anchor="start" x="279" y="-27.3" font-family="Times Roman,serif" font-size="13.00">Generated by RailRoady 1.1.0</text>
<text text-anchor="start" x="279" y="-10.3" font-family="Times Roman,serif" font-size="13.00">http://railroady.prestonlee.com</text>
</g>
<!-- ShellController -->
<g id="node2" class="node"><title>ShellController</title>
<polyline fill="none" stroke="black" points="13,-168.086 108,-168.086 "/>
<path fill="none" stroke="black" d="M108,-168.086C114,-168.086 120,-174.086 120,-180.086"/>
<polyline fill="none" stroke="black" points="120,-180.086 120,-276.086 "/>
<path fill="none" stroke="black" d="M120,-276.086C120,-282.086 114,-288.086 108,-288.086"/>
<polyline fill="none" stroke="black" points="108,-288.086 13,-288.086 "/>
<path fill="none" stroke="black" d="M13,-288.086C7,-288.086 1,-282.086 1,-276.086"/>
<polyline fill="none" stroke="black" points="1,-276.086 1,-180.086 "/>
<path fill="none" stroke="black" d="M1,-180.086C1,-174.086 7,-168.086 13,-168.086"/>
<text text-anchor="middle" x="60.5" y="-271.486" font-family="Times Roman,serif" font-size="14.00">ShellController</text>
<polyline fill="none" stroke="black" points="1,-262.086 120,-262.086 "/>
<text text-anchor="start" x="9" y="-245.486" font-family="Times Roman,serif" font-size="14.00">index</text>
<text text-anchor="start" x="9" y="-227.486" font-family="Times Roman,serif" font-size="14.00">update</text>
<polyline fill="none" stroke="black" points="1,-218.086 120,-218.086 "/>
<polyline fill="none" stroke="black" points="1,-194.086 120,-194.086 "/>
<text text-anchor="start" x="9" y="-177.486" font-family="Times Roman,serif" font-size="14.00">_layout</text>
</g>
<!-- ApplicationController -->
<g id="node3" class="node"><title>ApplicationController</title>
<polyline fill="none" stroke="black" points="146.922,-146.829 360.922,-146.829 "/>
<path fill="none" stroke="black" d="M360.922,-146.829C366.922,-146.829 372.922,-152.829 372.922,-158.829"/>
<polyline fill="none" stroke="black" points="372.922,-158.829 372.922,-290.829 "/>
<path fill="none" stroke="black" d="M372.922,-290.829C372.922,-296.829 366.922,-302.829 360.922,-302.829"/>
<polyline fill="none" stroke="black" points="360.922,-302.829 146.922,-302.829 "/>
<path fill="none" stroke="black" d="M146.922,-302.829C140.922,-302.829 134.922,-296.829 134.922,-290.829"/>
<polyline fill="none" stroke="black" points="134.922,-290.829 134.922,-158.829 "/>
<path fill="none" stroke="black" d="M134.922,-158.829C134.922,-152.829 140.922,-146.829 146.922,-146.829"/>
<text text-anchor="middle" x="253.922" y="-286.229" font-family="Times Roman,serif" font-size="14.00">ApplicationController</text>
<polyline fill="none" stroke="black" points="134.922,-276.829 372.922,-276.829 "/>
<text text-anchor="start" x="142.922" y="-260.229" font-family="Times Roman,serif" font-size="14.00">_one_time_conditions_valid_52?</text>
<text text-anchor="start" x="142.922" y="-242.229" font-family="Times Roman,serif" font-size="14.00">_one_time_conditions_valid_54?</text>
<text text-anchor="start" x="142.922" y="-224.229" font-family="Times Roman,serif" font-size="14.00">after_sign_in_path_for</text>
<text text-anchor="start" x="142.922" y="-206.229" font-family="Times Roman,serif" font-size="14.00">after_sign_out_path_for</text>
<polyline fill="none" stroke="black" points="134.922,-196.829 372.922,-196.829 "/>
<polyline fill="none" stroke="black" points="134.922,-172.829 372.922,-172.829 "/>
<text text-anchor="start" x="142.922" y="-156.229" font-family="Times Roman,serif" font-size="14.00">_layout</text>
</g>
<!-- ApplicationController&#45;&gt;ShellController -->
<g id="edge2" class="edge"><title>ApplicationController&#45;&gt;ShellController</title>
<path fill="none" stroke="black" d="M134.729,-226.836C129.753,-226.92 124.862,-227.002 120.111,-227.082"/>
</g>
<!-- HomeController -->
<g id="node4" class="node"><title>HomeController</title>
<polyline fill="none" stroke="black" points="104.081,-1.5 205.081,-1.5 "/>
<path fill="none" stroke="black" d="M205.081,-1.5C211.081,-1.5 217.081,-7.5 217.081,-13.5"/>
<polyline fill="none" stroke="black" points="217.081,-13.5 217.081,-91.5 "/>
<path fill="none" stroke="black" d="M217.081,-91.5C217.081,-97.5 211.081,-103.5 205.081,-103.5"/>
<polyline fill="none" stroke="black" points="205.081,-103.5 104.081,-103.5 "/>
<path fill="none" stroke="black" d="M104.081,-103.5C98.0814,-103.5 92.0814,-97.5 92.0814,-91.5"/>
<polyline fill="none" stroke="black" points="92.0814,-91.5 92.0814,-13.5 "/>
<path fill="none" stroke="black" d="M92.0814,-13.5C92.0814,-7.5 98.0814,-1.5 104.081,-1.5"/>
<text text-anchor="middle" x="154.581" y="-86.9" font-family="Times Roman,serif" font-size="14.00">HomeController</text>
<polyline fill="none" stroke="black" points="92.0814,-77.5 217.081,-77.5 "/>
<text text-anchor="start" x="100.081" y="-60.9" font-family="Times Roman,serif" font-size="14.00">index</text>
<polyline fill="none" stroke="black" points="92.0814,-51.5 217.081,-51.5 "/>
<polyline fill="none" stroke="black" points="92.0814,-27.5 217.081,-27.5 "/>
<text text-anchor="start" x="100.081" y="-10.9" font-family="Times Roman,serif" font-size="14.00">_layout</text>
</g>
<!-- ApplicationController&#45;&gt;HomeController -->
<g id="edge4" class="edge"><title>ApplicationController&#45;&gt;HomeController</title>
<path fill="none" stroke="black" d="M208.902,-146.732C200.483,-132.127 191.884,-117.21 184.084,-103.68"/>
</g>
</g>
</svg>
