<?xml version="1.0" encoding="UTF-8" standalone="no"?>
<!DOCTYPE svg PUBLIC "-//W3C//DTD SVG 1.1//EN"
 "http://www.w3.org/Graphics/SVG/1.1/DTD/svg11.dtd">
<!-- Generated by graphviz version 2.26.3 (20100126.1600)
 -->
<!-- Title: models_diagram Pages: 1 -->
<svg width="1357pt" height="728pt"
 viewBox="0.00 0.00 1356.57 728.00" xmlns="http://www.w3.org/2000/svg" xmlns:xlink="http://www.w3.org/1999/xlink">
<g id="graph1" class="graph" transform="scale(1 1) rotate(0) translate(4 724)">
<title>models_diagram</title>
<polygon fill="white" stroke="white" points="-4,5 -4,-724 1353.57,-724 1353.57,5 -4,5"/>
<!-- _diagram_info -->
<g id="node1" class="node"><title>_diagram_info</title>
<text text-anchor="start" x="253.573" y="-615.8" font-family="Times Roman,serif" font-size="13.00">Models diagram</text>
<text text-anchor="start" x="253.573" y="-598.8" font-family="Times Roman,serif" font-size="13.00">Date: Feb 23 2013 &#45; 19:19</text>
<text text-anchor="start" x="253.573" y="-581.8" font-family="Times Roman,serif" font-size="13.00">Migration version: 20130222213412</text>
<text text-anchor="start" x="253.573" y="-564.8" font-family="Times Roman,serif" font-size="13.00">Generated by RailRoady 1.1.0</text>
<text text-anchor="start" x="253.573" y="-547.8" font-family="Times Roman,serif" font-size="13.00">http://railroady.prestonlee.com</text>
</g>
<!-- Shell -->
<g id="node2" class="node"><title>Shell</title>
<polygon fill="none" stroke="black" points="513.573,-559 513.573,-611 567.573,-611 567.573,-559 513.573,-559"/>
<text text-anchor="middle" x="540.573" y="-594.4" font-family="Times Roman,serif" font-size="14.00">Shell</text>
<polyline fill="none" stroke="black" points="513.573,-585 567.573,-585 "/>
<text text-anchor="middle" x="540.573" y="-568.4" font-family="Times Roman,serif" font-size="14.00"> </text>
</g>
<!-- Candidate -->
<g id="node3" class="node"><title>Candidate</title>
<polyline fill="none" stroke="black" points="597.073,-478 766.073,-478 "/>
<path fill="none" stroke="black" d="M766.073,-478C772.073,-478 778.073,-484 778.073,-490"/>
<polyline fill="none" stroke="black" points="778.073,-490 778.073,-680 "/>
<path fill="none" stroke="black" d="M778.073,-680C778.073,-686 772.073,-692 766.073,-692"/>
<polyline fill="none" stroke="black" points="766.073,-692 597.073,-692 "/>
<path fill="none" stroke="black" d="M597.073,-692C591.073,-692 585.073,-686 585.073,-680"/>
<polyline fill="none" stroke="black" points="585.073,-680 585.073,-490 "/>
<path fill="none" stroke="black" d="M585.073,-490C585.073,-484 591.073,-478 597.073,-478"/>
<text text-anchor="middle" x="681.573" y="-675.4" font-family="Times Roman,serif" font-size="14.00">Candidate</text>
<polyline fill="none" stroke="black" points="585.073,-666 778.073,-666 "/>
<text text-anchor="start" x="593.073" y="-649.4" font-family="Times Roman,serif" font-size="14.00">id :integer</text>
<text text-anchor="start" x="593.073" y="-631.4" font-family="Times Roman,serif" font-size="14.00">name :string</text>
<text text-anchor="start" x="593.073" y="-613.4" font-family="Times Roman,serif" font-size="14.00">email :string</text>
<text text-anchor="start" x="593.073" y="-595.4" font-family="Times Roman,serif" font-size="14.00">phone :string</text>
<text text-anchor="start" x="593.073" y="-577.4" font-family="Times Roman,serif" font-size="14.00">current_status :string</text>
<text text-anchor="start" x="593.073" y="-559.4" font-family="Times Roman,serif" font-size="14.00">current_location :string</text>
<text text-anchor="start" x="593.073" y="-541.4" font-family="Times Roman,serif" font-size="14.00">languages :string</text>
<text text-anchor="start" x="593.073" y="-523.4" font-family="Times Roman,serif" font-size="14.00">general_information :text</text>
<text text-anchor="start" x="593.073" y="-505.4" font-family="Times Roman,serif" font-size="14.00">created_at :datetime</text>
<text text-anchor="start" x="593.073" y="-487.4" font-family="Times Roman,serif" font-size="14.00">updated_at :datetime</text>
</g>
<!-- Picture -->
<g id="node4" class="node"><title>Picture</title>
<polyline fill="none" stroke="black" points="191.073,-10 332.073,-10 "/>
<path fill="none" stroke="black" d="M332.073,-10C338.073,-10 344.073,-16 344.073,-22"/>
<polyline fill="none" stroke="black" points="344.073,-22 344.073,-140 "/>
<path fill="none" stroke="black" d="M344.073,-140C344.073,-146 338.073,-152 332.073,-152"/>
<polyline fill="none" stroke="black" points="332.073,-152 191.073,-152 "/>
<path fill="none" stroke="black" d="M191.073,-152C185.073,-152 179.073,-146 179.073,-140"/>
<polyline fill="none" stroke="black" points="179.073,-140 179.073,-22 "/>
<path fill="none" stroke="black" d="M179.073,-22C179.073,-16 185.073,-10 191.073,-10"/>
<text text-anchor="middle" x="261.573" y="-135.4" font-family="Times Roman,serif" font-size="14.00">Picture</text>
<polyline fill="none" stroke="black" points="179.073,-126 344.073,-126 "/>
<text text-anchor="start" x="187.073" y="-109.4" font-family="Times Roman,serif" font-size="14.00">id :integer</text>
<text text-anchor="start" x="187.073" y="-91.4" font-family="Times Roman,serif" font-size="14.00">owner_id :integer</text>
<text text-anchor="start" x="187.073" y="-73.4" font-family="Times Roman,serif" font-size="14.00">owner_type :integer</text>
<text text-anchor="start" x="187.073" y="-55.4" font-family="Times Roman,serif" font-size="14.00">picture :string</text>
<text text-anchor="start" x="187.073" y="-37.4" font-family="Times Roman,serif" font-size="14.00">created_at :datetime</text>
<text text-anchor="start" x="187.073" y="-19.4" font-family="Times Roman,serif" font-size="14.00">updated_at :datetime</text>
</g>
<!-- Candidate&#45;&gt;Picture -->
<g id="edge2" class="edge"><title>Candidate&#45;&gt;Picture</title>
<path fill="none" stroke="#4231a0" d="M607.643,-472.377C598.125,-463.654 587.755,-455.944 576.573,-450 471.749,-394.277 124.639,-500.726 43.5731,-414 -21.982,-343.868 -5.7108,-280.384 43.5731,-198 70.9594,-152.221 123.081,-123.323 169.492,-105.702"/>
<ellipse fill="none" stroke="#4231a0" cx="610.567" cy="-475.17" rx="4.00002" ry="4.00002"/>
<polygon fill="#4231a0" stroke="#4231a0" points="169.604,-105.661 180.542,-106.443 174.299,-103.94 178.993,-102.218 178.993,-102.218 178.993,-102.218 174.299,-103.94 177.444,-97.9934 169.604,-105.661 169.604,-105.661"/>
</g>
<!-- Education -->
<g id="node5" class="node"><title>Education</title>
<polyline fill="none" stroke="black" points="64.0731,-217 205.073,-217 "/>
<path fill="none" stroke="black" d="M205.073,-217C211.073,-217 217.073,-223 217.073,-229"/>
<polyline fill="none" stroke="black" points="217.073,-229 217.073,-383 "/>
<path fill="none" stroke="black" d="M217.073,-383C217.073,-389 211.073,-395 205.073,-395"/>
<polyline fill="none" stroke="black" points="205.073,-395 64.0731,-395 "/>
<path fill="none" stroke="black" d="M64.0731,-395C58.0731,-395 52.0731,-389 52.0731,-383"/>
<polyline fill="none" stroke="black" points="52.0731,-383 52.0731,-229 "/>
<path fill="none" stroke="black" d="M52.0731,-229C52.0731,-223 58.0731,-217 64.0731,-217"/>
<text text-anchor="middle" x="134.573" y="-378.4" font-family="Times Roman,serif" font-size="14.00">Education</text>
<polyline fill="none" stroke="black" points="52.0731,-369 217.073,-369 "/>
<text text-anchor="start" x="60.0731" y="-352.4" font-family="Times Roman,serif" font-size="14.00">id :integer</text>
<text text-anchor="start" x="60.0731" y="-334.4" font-family="Times Roman,serif" font-size="14.00">candidate_id :integer</text>
<text text-anchor="start" x="60.0731" y="-316.4" font-family="Times Roman,serif" font-size="14.00">name :string</text>
<text text-anchor="start" x="60.0731" y="-298.4" font-family="Times Roman,serif" font-size="14.00">year_from :integer</text>
<text text-anchor="start" x="60.0731" y="-280.4" font-family="Times Roman,serif" font-size="14.00">year_to :integer</text>
<text text-anchor="start" x="60.0731" y="-262.4" font-family="Times Roman,serif" font-size="14.00">description :text</text>
<text text-anchor="start" x="60.0731" y="-244.4" font-family="Times Roman,serif" font-size="14.00">created_at :datetime</text>
<text text-anchor="start" x="60.0731" y="-226.4" font-family="Times Roman,serif" font-size="14.00">updated_at :datetime</text>
</g>
<!-- Candidate&#45;&gt;Education -->
<g id="edge6" class="edge"><title>Candidate&#45;&gt;Education</title>
<path fill="none" stroke="#661474" d="M606.608,-472.026C597.358,-463.529 587.332,-455.961 576.573,-450 439.404,-373.996 364.203,-487.306 225.573,-414 219.016,-410.533 212.739,-406.377 206.766,-401.744"/>
<ellipse fill="none" stroke="#661474" cx="609.684" cy="-474.97" rx="4.00002" ry="4.00002"/>
<polygon fill="#661474" stroke="#661474" points="206.51,-401.532 201.684,-391.686 202.661,-398.341 198.812,-395.15 198.812,-395.15 198.812,-395.15 202.661,-398.341 195.94,-398.614 206.51,-401.532 206.51,-401.532"/>
</g>
<!-- Experience -->
<g id="node6" class="node"><title>Experience</title>
<polyline fill="none" stroke="black" points="246.073,-199 387.073,-199 "/>
<path fill="none" stroke="black" d="M387.073,-199C393.073,-199 399.073,-205 399.073,-211"/>
<polyline fill="none" stroke="black" points="399.073,-211 399.073,-401 "/>
<path fill="none" stroke="black" d="M399.073,-401C399.073,-407 393.073,-413 387.073,-413"/>
<polyline fill="none" stroke="black" points="387.073,-413 246.073,-413 "/>
<path fill="none" stroke="black" d="M246.073,-413C240.073,-413 234.073,-407 234.073,-401"/>
<polyline fill="none" stroke="black" points="234.073,-401 234.073,-211 "/>
<path fill="none" stroke="black" d="M234.073,-211C234.073,-205 240.073,-199 246.073,-199"/>
<text text-anchor="middle" x="316.573" y="-396.4" font-family="Times Roman,serif" font-size="14.00">Experience</text>
<polyline fill="none" stroke="black" points="234.073,-387 399.073,-387 "/>
<text text-anchor="start" x="242.073" y="-370.4" font-family="Times Roman,serif" font-size="14.00">id :integer</text>
<text text-anchor="start" x="242.073" y="-352.4" font-family="Times Roman,serif" font-size="14.00">candidate_id :integer</text>
<text text-anchor="start" x="242.073" y="-334.4" font-family="Times Roman,serif" font-size="14.00">name :string</text>
<text text-anchor="start" x="242.073" y="-316.4" font-family="Times Roman,serif" font-size="14.00">year_from :integer</text>
<text text-anchor="start" x="242.073" y="-298.4" font-family="Times Roman,serif" font-size="14.00">year_to :integer</text>
<text text-anchor="start" x="242.073" y="-280.4" font-family="Times Roman,serif" font-size="14.00">description :text</text>
<text text-anchor="start" x="242.073" y="-262.4" font-family="Times Roman,serif" font-size="14.00">key_facts :text</text>
<text text-anchor="start" x="242.073" y="-244.4" font-family="Times Roman,serif" font-size="14.00">url :string</text>
<text text-anchor="start" x="242.073" y="-226.4" font-family="Times Roman,serif" font-size="14.00">created_at :datetime</text>
<text text-anchor="start" x="242.073" y="-208.4" font-family="Times Roman,serif" font-size="14.00">updated_at :datetime</text>
</g>
<!-- Candidate&#45;&gt;Experience -->
<g id="edge10" class="edge"><title>Candidate&#45;&gt;Experience</title>
<path fill="none" stroke="#96500c" d="M604.562,-471.955C595.838,-463.713 586.488,-456.213 576.573,-450 514.169,-410.891 476.6,-450.011 408.155,-413.641"/>
<ellipse fill="none" stroke="#96500c" cx="607.644" cy="-474.974" rx="4.00002" ry="4.00002"/>
<polygon fill="#96500c" stroke="#96500c" points="407.892,-413.491 401.424,-404.636 403.546,-411.019 399.199,-408.548 399.199,-408.548 399.199,-408.548 403.546,-411.019 396.975,-412.459 407.892,-413.491 407.892,-413.491"/>
</g>
<!-- OpenSourceProject -->
<g id="node7" class="node"><title>OpenSourceProject</title>
<polyline fill="none" stroke="black" points="428.073,-226 569.073,-226 "/>
<path fill="none" stroke="black" d="M569.073,-226C575.073,-226 581.073,-232 581.073,-238"/>
<polyline fill="none" stroke="black" points="581.073,-238 581.073,-374 "/>
<path fill="none" stroke="black" d="M581.073,-374C581.073,-380 575.073,-386 569.073,-386"/>
<polyline fill="none" stroke="black" points="569.073,-386 428.073,-386 "/>
<path fill="none" stroke="black" d="M428.073,-386C422.073,-386 416.073,-380 416.073,-374"/>
<polyline fill="none" stroke="black" points="416.073,-374 416.073,-238 "/>
<path fill="none" stroke="black" d="M416.073,-238C416.073,-232 422.073,-226 428.073,-226"/>
<text text-anchor="middle" x="498.573" y="-369.4" font-family="Times Roman,serif" font-size="14.00">OpenSourceProject</text>
<polyline fill="none" stroke="black" points="416.073,-360 581.073,-360 "/>
<text text-anchor="start" x="424.073" y="-343.4" font-family="Times Roman,serif" font-size="14.00">id :integer</text>
<text text-anchor="start" x="424.073" y="-325.4" font-family="Times Roman,serif" font-size="14.00">candidate_id :integer</text>
<text text-anchor="start" x="424.073" y="-307.4" font-family="Times Roman,serif" font-size="14.00">name :string</text>
<text text-anchor="start" x="424.073" y="-289.4" font-family="Times Roman,serif" font-size="14.00">description :text</text>
<text text-anchor="start" x="424.073" y="-271.4" font-family="Times Roman,serif" font-size="14.00">url :string</text>
<text text-anchor="start" x="424.073" y="-253.4" font-family="Times Roman,serif" font-size="14.00">created_at :datetime</text>
<text text-anchor="start" x="424.073" y="-235.4" font-family="Times Roman,serif" font-size="14.00">updated_at :datetime</text>
</g>
<!-- Candidate&#45;&gt;OpenSourceProject -->
<g id="edge8" class="edge"><title>Candidate&#45;&gt;OpenSourceProject</title>
<path fill="none" stroke="#bf38be" d="M606.878,-471.121C590.194,-445.684 572.737,-419.07 556.832,-394.82"/>
<ellipse fill="none" stroke="#bf38be" cx="609.15" cy="-474.585" rx="4.00002" ry="4.00002"/>
<polygon fill="#bf38be" stroke="#bf38be" points="556.759,-394.709 555.037,-383.879 554.016,-390.528 551.274,-386.347 551.274,-386.347 551.274,-386.347 554.016,-390.528 547.511,-388.816 556.759,-394.709 556.759,-394.709"/>
</g>
<!-- Skill -->
<g id="node8" class="node"><title>Skill</title>
<polyline fill="none" stroke="black" points="848.073,-1 989.073,-1 "/>
<path fill="none" stroke="black" d="M989.073,-1C995.073,-1 1001.07,-7 1001.07,-13"/>
<polyline fill="none" stroke="black" points="1001.07,-13 1001.07,-149 "/>
<path fill="none" stroke="black" d="M1001.07,-149C1001.07,-155 995.073,-161 989.073,-161"/>
<polyline fill="none" stroke="black" points="989.073,-161 848.073,-161 "/>
<path fill="none" stroke="black" d="M848.073,-161C842.073,-161 836.073,-155 836.073,-149"/>
<polyline fill="none" stroke="black" points="836.073,-149 836.073,-13 "/>
<path fill="none" stroke="black" d="M836.073,-13C836.073,-7 842.073,-1 848.073,-1"/>
<text text-anchor="middle" x="918.573" y="-144.4" font-family="Times Roman,serif" font-size="14.00">Skill</text>
<polyline fill="none" stroke="black" points="836.073,-135 1001.07,-135 "/>
<text text-anchor="start" x="844.073" y="-118.4" font-family="Times Roman,serif" font-size="14.00">id :integer</text>
<text text-anchor="start" x="844.073" y="-100.4" font-family="Times Roman,serif" font-size="14.00">name :string</text>
<text text-anchor="start" x="844.073" y="-82.4" font-family="Times Roman,serif" font-size="14.00">owner_id :integer</text>
<text text-anchor="start" x="844.073" y="-64.4" font-family="Times Roman,serif" font-size="14.00">owner_type :string</text>
<text text-anchor="start" x="844.073" y="-46.4" font-family="Times Roman,serif" font-size="14.00">level :string</text>
<text text-anchor="start" x="844.073" y="-28.4" font-family="Times Roman,serif" font-size="14.00">created_at :datetime</text>
<text text-anchor="start" x="844.073" y="-10.4" font-family="Times Roman,serif" font-size="14.00">updated_at :datetime</text>
</g>
<!-- Candidate&#45;&gt;Skill -->
<g id="edge4" class="edge"><title>Candidate&#45;&gt;Skill</title>
<path fill="none" stroke="#d0c21b" d="M756.538,-472.026C765.788,-463.529 775.814,-455.961 786.573,-450 855.158,-411.998 1085.03,-472.203 1137.57,-414 1169.74,-378.369 1162.25,-239.168 1137.57,-198 1109.99,-151.997 1057.49,-123.073 1010.8,-105.494"/>
<ellipse fill="none" stroke="#d0c21b" cx="753.462" cy="-474.97" rx="4.00002" ry="4.00002"/>
<polygon fill="#d0c21b" stroke="#d0c21b" points="1010.64,-105.436 1002.78,-97.7906 1005.94,-103.728 1001.24,-102.02 1001.24,-102.02 1001.24,-102.02 1005.94,-103.728 999.707,-106.249 1010.64,-105.436 1010.64,-105.436"/>
</g>
<!-- Hobby -->
<g id="node10" class="node"><title>Hobby</title>
<polyline fill="none" stroke="black" points="794.073,-244 935.073,-244 "/>
<path fill="none" stroke="black" d="M935.073,-244C941.073,-244 947.073,-250 947.073,-256"/>
<polyline fill="none" stroke="black" points="947.073,-256 947.073,-356 "/>
<path fill="none" stroke="black" d="M947.073,-356C947.073,-362 941.073,-368 935.073,-368"/>
<polyline fill="none" stroke="black" points="935.073,-368 794.073,-368 "/>
<path fill="none" stroke="black" d="M794.073,-368C788.073,-368 782.073,-362 782.073,-356"/>
<polyline fill="none" stroke="black" points="782.073,-356 782.073,-256 "/>
<path fill="none" stroke="black" d="M782.073,-256C782.073,-250 788.073,-244 794.073,-244"/>
<text text-anchor="middle" x="864.573" y="-351.4" font-family="Times Roman,serif" font-size="14.00">Hobby</text>
<polyline fill="none" stroke="black" points="782.073,-342 947.073,-342 "/>
<text text-anchor="start" x="790.073" y="-325.4" font-family="Times Roman,serif" font-size="14.00">id :integer</text>
<text text-anchor="start" x="790.073" y="-307.4" font-family="Times Roman,serif" font-size="14.00">candidate_id :integer</text>
<text text-anchor="start" x="790.073" y="-289.4" font-family="Times Roman,serif" font-size="14.00">name :string</text>
<text text-anchor="start" x="790.073" y="-271.4" font-family="Times Roman,serif" font-size="14.00">created_at :datetime</text>
<text text-anchor="start" x="790.073" y="-253.4" font-family="Times Roman,serif" font-size="14.00">updated_at :datetime</text>
</g>
<!-- Candidate&#45;&gt;Hobby -->
<g id="edge12" class="edge"><title>Candidate&#45;&gt;Hobby</title>
<path fill="none" stroke="#7d0689" d="M756.38,-470.95C777.219,-439.18 799.253,-405.586 817.96,-377.066"/>
<ellipse fill="none" stroke="#7d0689" cx="753.996" cy="-474.585" rx="4.00002" ry="4.00002"/>
<polygon fill="#7d0689" stroke="#7d0689" points="818.169,-376.747 827.417,-370.853 820.912,-372.566 823.654,-368.385 823.654,-368.385 823.654,-368.385 820.912,-372.566 819.891,-365.917 818.169,-376.747 818.169,-376.747"/>
</g>
<!-- ProfileLink -->
<g id="node11" class="node"><title>ProfileLink</title>
<polyline fill="none" stroke="black" points="976.073,-235 1117.07,-235 "/>
<path fill="none" stroke="black" d="M1117.07,-235C1123.07,-235 1129.07,-241 1129.07,-247"/>
<polyline fill="none" stroke="black" points="1129.07,-247 1129.07,-365 "/>
<path fill="none" stroke="black" d="M1129.07,-365C1129.07,-371 1123.07,-377 1117.07,-377"/>
<polyline fill="none" stroke="black" points="1117.07,-377 976.073,-377 "/>
<path fill="none" stroke="black" d="M976.073,-377C970.073,-377 964.073,-371 964.073,-365"/>
<polyline fill="none" stroke="black" points="964.073,-365 964.073,-247 "/>
<path fill="none" stroke="black" d="M964.073,-247C964.073,-241 970.073,-235 976.073,-235"/>
<text text-anchor="middle" x="1046.57" y="-360.4" font-family="Times Roman,serif" font-size="14.00">ProfileLink</text>
<polyline fill="none" stroke="black" points="964.073,-351 1129.07,-351 "/>
<text text-anchor="start" x="972.073" y="-334.4" font-family="Times Roman,serif" font-size="14.00">id :integer</text>
<text text-anchor="start" x="972.073" y="-316.4" font-family="Times Roman,serif" font-size="14.00">candidate_id :integer</text>
<text text-anchor="start" x="972.073" y="-298.4" font-family="Times Roman,serif" font-size="14.00">name :string</text>
<text text-anchor="start" x="972.073" y="-280.4" font-family="Times Roman,serif" font-size="14.00">url :string</text>
<text text-anchor="start" x="972.073" y="-262.4" font-family="Times Roman,serif" font-size="14.00">created_at :datetime</text>
<text text-anchor="start" x="972.073" y="-244.4" font-family="Times Roman,serif" font-size="14.00">updated_at :datetime</text>
</g>
<!-- Candidate&#45;&gt;ProfileLink -->
<g id="edge14" class="edge"><title>Candidate&#45;&gt;ProfileLink</title>
<path fill="none" stroke="#48bbe4" d="M758.584,-471.955C767.309,-463.713 776.659,-456.213 786.573,-450 851.647,-409.219 889.714,-453.5 955.573,-414 968.596,-406.189 980.643,-395.837 991.426,-384.63"/>
<ellipse fill="none" stroke="#48bbe4" cx="755.502" cy="-474.974" rx="4.00002" ry="4.00002"/>
<polygon fill="#48bbe4" stroke="#48bbe4" points="991.541,-384.505 1001.63,-380.213 994.933,-380.832 998.326,-377.159 998.326,-377.159 998.326,-377.159 994.933,-380.832 995.02,-374.106 991.541,-384.505 991.541,-384.505"/>
</g>
<!-- Cat -->
<g id="node12" class="node"><title>Cat</title>
<polyline fill="none" stroke="black" points="610.073,-226 753.073,-226 "/>
<path fill="none" stroke="black" d="M753.073,-226C759.073,-226 765.073,-232 765.073,-238"/>
<polyline fill="none" stroke="black" points="765.073,-238 765.073,-374 "/>
<path fill="none" stroke="black" d="M765.073,-374C765.073,-380 759.073,-386 753.073,-386"/>
<polyline fill="none" stroke="black" points="753.073,-386 610.073,-386 "/>
<path fill="none" stroke="black" d="M610.073,-386C604.073,-386 598.073,-380 598.073,-374"/>
<polyline fill="none" stroke="black" points="598.073,-374 598.073,-238 "/>
<path fill="none" stroke="black" d="M598.073,-238C598.073,-232 604.073,-226 610.073,-226"/>
<text text-anchor="middle" x="681.573" y="-369.4" font-family="Times Roman,serif" font-size="14.00">Cat</text>
<polyline fill="none" stroke="black" points="598.073,-360 765.073,-360 "/>
<text text-anchor="start" x="606.073" y="-343.4" font-family="Times Roman,serif" font-size="14.00">id :integer</text>
<text text-anchor="start" x="606.073" y="-325.4" font-family="Times Roman,serif" font-size="14.00">candidate_id :integer</text>
<text text-anchor="start" x="606.073" y="-307.4" font-family="Times Roman,serif" font-size="14.00">name :string</text>
<text text-anchor="start" x="606.073" y="-289.4" font-family="Times Roman,serif" font-size="14.00">breed :string</text>
<text text-anchor="start" x="606.073" y="-271.4" font-family="Times Roman,serif" font-size="14.00">current_status :string</text>
<text text-anchor="start" x="606.073" y="-253.4" font-family="Times Roman,serif" font-size="14.00">created_at :datetime</text>
<text text-anchor="start" x="606.073" y="-235.4" font-family="Times Roman,serif" font-size="14.00">updated_at :datetime</text>
</g>
<!-- Candidate&#45;&gt;Cat -->
<g id="edge18" class="edge"><title>Candidate&#45;&gt;Cat</title>
<path fill="none" stroke="#f29038" d="M681.573,-469.68C681.573,-445.286 681.573,-419.875 681.573,-396.553"/>
<ellipse fill="none" stroke="#f29038" cx="681.573" cy="-473.929" rx="4" ry="4"/>
<polygon fill="#f29038" stroke="#f29038" points="681.573,-396.347 686.073,-386.347 681.573,-391.347 681.573,-386.347 681.573,-386.347 681.573,-386.347 681.573,-391.347 677.073,-386.347 681.573,-396.347 681.573,-396.347"/>
</g>
<!-- FunnyLink -->
<g id="node13" class="node"><title>FunnyLink</title>
<polyline fill="none" stroke="black" points="1196.07,-235 1337.07,-235 "/>
<path fill="none" stroke="black" d="M1337.07,-235C1343.07,-235 1349.07,-241 1349.07,-247"/>
<polyline fill="none" stroke="black" points="1349.07,-247 1349.07,-365 "/>
<path fill="none" stroke="black" d="M1349.07,-365C1349.07,-371 1343.07,-377 1337.07,-377"/>
<polyline fill="none" stroke="black" points="1337.07,-377 1196.07,-377 "/>
<path fill="none" stroke="black" d="M1196.07,-377C1190.07,-377 1184.07,-371 1184.07,-365"/>
<polyline fill="none" stroke="black" points="1184.07,-365 1184.07,-247 "/>
<path fill="none" stroke="black" d="M1184.07,-247C1184.07,-241 1190.07,-235 1196.07,-235"/>
<text text-anchor="middle" x="1266.57" y="-360.4" font-family="Times Roman,serif" font-size="14.00">FunnyLink</text>
<polyline fill="none" stroke="black" points="1184.07,-351 1349.07,-351 "/>
<text text-anchor="start" x="1192.07" y="-334.4" font-family="Times Roman,serif" font-size="14.00">id :integer</text>
<text text-anchor="start" x="1192.07" y="-316.4" font-family="Times Roman,serif" font-size="14.00">candidate_id :integer</text>
<text text-anchor="start" x="1192.07" y="-298.4" font-family="Times Roman,serif" font-size="14.00">name :string</text>
<text text-anchor="start" x="1192.07" y="-280.4" font-family="Times Roman,serif" font-size="14.00">url :string</text>
<text text-anchor="start" x="1192.07" y="-262.4" font-family="Times Roman,serif" font-size="14.00">created_at :datetime</text>
<text text-anchor="start" x="1192.07" y="-244.4" font-family="Times Roman,serif" font-size="14.00">updated_at :datetime</text>
</g>
<!-- Candidate&#45;&gt;FunnyLink -->
<g id="edge16" class="edge"><title>Candidate&#45;&gt;FunnyLink</title>
<path fill="none" stroke="#e6ad0f" d="M756.209,-472.179C765.545,-463.599 775.681,-455.973 786.573,-450 936.871,-367.576 1017.65,-491.45 1170.57,-414 1185.03,-406.678 1198.3,-396.176 1210.07,-384.563"/>
<ellipse fill="none" stroke="#e6ad0f" cx="753.077" cy="-475.179" rx="4.00002" ry="4.00002"/>
<polygon fill="#e6ad0f" stroke="#e6ad0f" points="1210.24,-384.389 1220.43,-380.34 1213.72,-380.799 1217.2,-377.208 1217.2,-377.208 1217.2,-377.208 1213.72,-380.799 1213.97,-374.076 1210.24,-384.389 1210.24,-384.389"/>
</g>
<!-- Recruiter -->
<g id="node9" class="node"><title>Recruiter</title>
<polyline fill="none" stroke="black" points="807.573,-451 1037.57,-451 "/>
<path fill="none" stroke="black" d="M1037.57,-451C1043.57,-451 1049.57,-457 1049.57,-463"/>
<polyline fill="none" stroke="black" points="1049.57,-463 1049.57,-707 "/>
<path fill="none" stroke="black" d="M1049.57,-707C1049.57,-713 1043.57,-719 1037.57,-719"/>
<polyline fill="none" stroke="black" points="1037.57,-719 807.573,-719 "/>
<path fill="none" stroke="black" d="M807.573,-719C801.573,-719 795.573,-713 795.573,-707"/>
<polyline fill="none" stroke="black" points="795.573,-707 795.573,-463 "/>
<path fill="none" stroke="black" d="M795.573,-463C795.573,-457 801.573,-451 807.573,-451"/>
<text text-anchor="middle" x="922.573" y="-702.4" font-family="Times Roman,serif" font-size="14.00">Recruiter</text>
<polyline fill="none" stroke="black" points="795.573,-693 1049.57,-693 "/>
<text text-anchor="start" x="803.573" y="-676.4" font-family="Times Roman,serif" font-size="14.00">id :integer</text>
<text text-anchor="start" x="803.573" y="-658.4" font-family="Times Roman,serif" font-size="14.00">email :string</text>
<text text-anchor="start" x="803.573" y="-640.4" font-family="Times Roman,serif" font-size="14.00">encrypted_password :string</text>
<text text-anchor="start" x="803.573" y="-622.4" font-family="Times Roman,serif" font-size="14.00">reset_password_token :string</text>
<text text-anchor="start" x="803.573" y="-604.4" font-family="Times Roman,serif" font-size="14.00">reset_password_sent_at :datetime</text>
<text text-anchor="start" x="803.573" y="-586.4" font-family="Times Roman,serif" font-size="14.00">remember_created_at :datetime</text>
<text text-anchor="start" x="803.573" y="-568.4" font-family="Times Roman,serif" font-size="14.00">sign_in_count :integer</text>
<text text-anchor="start" x="803.573" y="-550.4" font-family="Times Roman,serif" font-size="14.00">current_sign_in_at :datetime</text>
<text text-anchor="start" x="803.573" y="-532.4" font-family="Times Roman,serif" font-size="14.00">last_sign_in_at :datetime</text>
<text text-anchor="start" x="803.573" y="-514.4" font-family="Times Roman,serif" font-size="14.00">current_sign_in_ip :string</text>
<text text-anchor="start" x="803.573" y="-496.4" font-family="Times Roman,serif" font-size="14.00">last_sign_in_ip :string</text>
<text text-anchor="start" x="803.573" y="-478.4" font-family="Times Roman,serif" font-size="14.00">created_at :datetime</text>
<text text-anchor="start" x="803.573" y="-460.4" font-family="Times Roman,serif" font-size="14.00">updated_at :datetime</text>
</g>
<!-- Cat&#45;&gt;Picture -->
<g id="edge20" class="edge"><title>Cat&#45;&gt;Picture</title>
<path fill="none" stroke="#d186e9" d="M616.192,-220.147C607.807,-212.012 598.88,-204.421 589.573,-198 518.07,-148.668 423.506,-117.856 354.291,-100.314"/>
<ellipse fill="none" stroke="#d186e9" cx="619.079" cy="-223.031" rx="4.00002" ry="4.00002"/>
<polygon fill="#d186e9" stroke="#d186e9" points="353.974,-100.236 345.355,-93.4551 349.121,-99.0288 344.269,-97.8221 344.269,-97.8221 344.269,-97.8221 349.121,-99.0288 343.183,-102.189 353.974,-100.236 353.974,-100.236"/>
</g>
<!-- Cat&#45;&gt;Skill -->
<g id="edge22" class="edge"><title>Cat&#45;&gt;Skill</title>
<path fill="none" stroke="#9e2b7c" d="M752.746,-219.457C759.609,-212.034 766.611,-204.779 773.573,-198 790.404,-181.611 809.355,-165.105 827.869,-149.867"/>
<ellipse fill="none" stroke="#9e2b7c" cx="749.716" cy="-222.772" rx="4.00002" ry="4.00002"/>
<polygon fill="#9e2b7c" stroke="#9e2b7c" points="828.022,-149.742 838.615,-146.904 831.896,-146.58 835.769,-143.418 835.769,-143.418 835.769,-143.418 831.896,-146.58 832.923,-139.932 828.022,-149.742 828.022,-149.742"/>
</g>
</g>
</svg>
