<?xml version="1.0" encoding="UTF-8" standalone="no"?>
<!DOCTYPE svg PUBLIC "-//W3C//DTD SVG 1.1//EN"
 "http://www.w3.org/Graphics/SVG/1.1/DTD/svg11.dtd">
<!-- Generated by graphviz version 2.26.3 (20100126.1600)
 -->
<!-- Title: models_diagram Pages: 1 -->
<svg width="1029pt" height="250pt"
 viewBox="0.00 0.00 1028.57 250.00" xmlns="http://www.w3.org/2000/svg" xmlns:xlink="http://www.w3.org/1999/xlink">
<g id="graph1" class="graph" transform="scale(1 1) rotate(0) translate(4 246)">
<title>models_diagram</title>
<polygon fill="white" stroke="white" points="-4,5 -4,-246 1025.57,-246 1025.57,5 -4,5"/>
<!-- _diagram_info -->
<g id="node1" class="node"><title>_diagram_info</title>
<text text-anchor="start" x="170.571" y="-225.8" font-family="Times Roman,serif" font-size="13.00">Models diagram</text>
<text text-anchor="start" x="170.571" y="-208.8" font-family="Times Roman,serif" font-size="13.00">Date: Feb 23 2013 &#45; 19:19</text>
<text text-anchor="start" x="170.571" y="-191.8" font-family="Times Roman,serif" font-size="13.00">Migration version: 20130222213412</text>
<text text-anchor="start" x="170.571" y="-174.8" font-family="Times Roman,serif" font-size="13.00">Generated by RailRoady 1.1.0</text>
<text text-anchor="start" x="170.571" y="-157.8" font-family="Times Roman,serif" font-size="13.00">http://railroady.prestonlee.com</text>
</g>
<!-- Shell -->
<g id="node2" class="node"><title>Shell</title>
<polygon fill="none" stroke="black" points="484.571,-213 430.571,-213 430.571,-177 484.571,-177 484.571,-213"/>
<text text-anchor="middle" x="457.571" y="-191.4" font-family="Times Roman,serif" font-size="14.00">Shell</text>
</g>
<!-- Candidate -->
<g id="node3" class="node"><title>Candidate</title>
<ellipse fill="none" stroke="black" cx="563.571" cy="-195" rx="60.8112" ry="18.3848"/>
<text text-anchor="middle" x="563.571" y="-191.4" font-family="Times Roman,serif" font-size="14.00">Candidate</text>
</g>
<!-- Picture -->
<g id="node4" class="node"><title>Picture</title>
<ellipse fill="none" stroke="black" cx="229.571" cy="-19" rx="45.9619" ry="18.3848"/>
<text text-anchor="middle" x="229.571" y="-15.4" font-family="Times Roman,serif" font-size="14.00">Picture</text>
</g>
<!-- Candidate&#45;&gt;Picture -->
<g id="edge2" class="edge"><title>Candidate&#45;&gt;Picture</title>
<path fill="none" stroke="#39149d" d="M536.822,-172.256C524.46,-163.061 509.095,-153.368 493.571,-148 442.815,-130.449 48.104,-151.364 11.5706,-112 -39.7666,-56.6855 94.348,-32.8947 174.538,-23.8499"/>
<ellipse fill="none" stroke="#39149d" cx="540.191" cy="-174.845" rx="4.00002" ry="4.00002"/>
<polygon fill="#39149d" stroke="#39149d" points="174.571,-23.8464 184.998,-27.2428 179.542,-23.3077 184.513,-22.7689 184.513,-22.7689 184.513,-22.7689 179.542,-23.3077 184.028,-18.2951 174.571,-23.8464 174.571,-23.8464"/>
</g>
<!-- Education -->
<g id="node5" class="node"><title>Education</title>
<ellipse fill="none" stroke="black" cx="80.5706" cy="-93" rx="60.1041" ry="18.3848"/>
<text text-anchor="middle" x="80.5706" y="-89.4" font-family="Times Roman,serif" font-size="14.00">Education</text>
</g>
<!-- Candidate&#45;&gt;Education -->
<g id="edge6" class="edge"><title>Candidate&#45;&gt;Education</title>
<path fill="none" stroke="#95c09c" d="M536.745,-172.474C524.369,-163.32 509.014,-153.598 493.571,-148 349.05,-95.6089 300.629,-140.502 149.571,-112 144.437,-111.031 139.128,-109.868 133.84,-108.601"/>
<ellipse fill="none" stroke="#95c09c" cx="540.116" cy="-175.045" rx="4.00002" ry="4.00002"/>
<polygon fill="#95c09c" stroke="#95c09c" points="133.446,-108.502 124.848,-101.695 128.598,-107.28 123.749,-106.059 123.749,-106.059 123.749,-106.059 128.598,-107.28 122.65,-110.422 133.446,-108.502 133.446,-108.502"/>
</g>
<!-- Experience -->
<g id="node6" class="node"><title>Experience</title>
<ellipse fill="none" stroke="black" cx="223.571" cy="-93" rx="65.0538" ry="18.3848"/>
<text text-anchor="middle" x="223.571" y="-89.4" font-family="Times Roman,serif" font-size="14.00">Experience</text>
</g>
<!-- Candidate&#45;&gt;Experience -->
<g id="edge10" class="edge"><title>Candidate&#45;&gt;Experience</title>
<path fill="none" stroke="#0f0443" d="M535.967,-172.627C523.651,-163.692 508.557,-154.098 493.571,-148 411.535,-114.617 384.072,-131.025 297.571,-112 292.227,-110.825 286.684,-109.535 281.145,-108.198"/>
<ellipse fill="none" stroke="#0f0443" cx="539.297" cy="-175.106" rx="4.00002" ry="4.00002"/>
<polygon fill="#0f0443" stroke="#0f0443" points="280.932,-108.146 272.298,-101.386 276.077,-106.95 271.222,-105.755 271.222,-105.755 271.222,-105.755 276.077,-106.95 270.146,-110.125 280.932,-108.146 280.932,-108.146"/>
</g>
<!-- OpenSourceProject -->
<g id="node7" class="node"><title>OpenSourceProject</title>
<ellipse fill="none" stroke="black" cx="411.571" cy="-93" rx="104.86" ry="18.3848"/>
<text text-anchor="middle" x="411.571" y="-89.4" font-family="Times Roman,serif" font-size="14.00">OpenSourceProject</text>
</g>
<!-- Candidate&#45;&gt;OpenSourceProject -->
<g id="edge8" class="edge"><title>Candidate&#45;&gt;OpenSourceProject</title>
<path fill="none" stroke="#1a8d71" d="M531.507,-173.467C519.595,-165.468 505.967,-156.319 493.571,-148 478.365,-137.796 461.571,-126.53 447.161,-116.866"/>
<ellipse fill="none" stroke="#1a8d71" cx="534.979" cy="-175.799" rx="4.00002" ry="4.00002"/>
<polygon fill="#1a8d71" stroke="#1a8d71" points="446.838,-116.65 441.04,-107.343 442.686,-113.865 438.533,-111.08 438.533,-111.08 438.533,-111.08 442.686,-113.865 436.027,-114.817 446.838,-116.65 446.838,-116.65"/>
</g>
<!-- Skill -->
<g id="node8" class="node"><title>Skill</title>
<ellipse fill="none" stroke="black" cx="714.571" cy="-19" rx="31.8198" ry="18.3848"/>
<text text-anchor="middle" x="714.571" y="-15.4" font-family="Times Roman,serif" font-size="14.00">Skill</text>
</g>
<!-- Candidate&#45;&gt;Skill -->
<g id="edge4" class="edge"><title>Candidate&#45;&gt;Skill</title>
<path fill="none" stroke="#486a8d" d="M591.13,-172.518C603.438,-163.565 618.539,-153.986 633.571,-148 723.174,-112.317 785.285,-185.639 847.571,-112 858.477,-99.1052 856.958,-88.0399 847.571,-74 827.357,-43.7675 787.137,-30.1337 756.193,-23.9968"/>
<ellipse fill="none" stroke="#486a8d" cx="587.802" cy="-175.006" rx="4.00002" ry="4.00002"/>
<polygon fill="#486a8d" stroke="#486a8d" points="755.941,-23.9517 746.89,-17.7602 751.019,-23.0708 746.097,-22.1899 746.097,-22.1899 746.097,-22.1899 751.019,-23.0708 745.305,-26.6195 755.941,-23.9517 755.941,-23.9517"/>
</g>
<!-- Hobby -->
<g id="node10" class="node"><title>Hobby</title>
<ellipse fill="none" stroke="black" cx="652.571" cy="-93" rx="41.9273" ry="18.3848"/>
<text text-anchor="middle" x="652.571" y="-89.4" font-family="Times Roman,serif" font-size="14.00">Hobby</text>
</g>
<!-- Candidate&#45;&gt;Hobby -->
<g id="edge12" class="edge"><title>Candidate&#45;&gt;Hobby</title>
<path fill="none" stroke="#865639" d="M585.162,-170.255C598.925,-154.482 616.707,-134.102 630.552,-118.235"/>
<ellipse fill="none" stroke="#865639" cx="582.112" cy="-173.75" rx="4.00002" ry="4.00002"/>
<polygon fill="#865639" stroke="#865639" points="630.816,-117.932 640.782,-113.355 634.104,-114.164 637.391,-110.397 637.391,-110.397 637.391,-110.397 634.104,-114.164 634,-107.438 630.816,-117.932 630.816,-117.932"/>
</g>
<!-- ProfileLink -->
<g id="node11" class="node"><title>ProfileLink</title>
<ellipse fill="none" stroke="black" cx="775.571" cy="-93" rx="62.9325" ry="18.3848"/>
<text text-anchor="middle" x="775.571" y="-89.4" font-family="Times Roman,serif" font-size="14.00">ProfileLink</text>
</g>
<!-- Candidate&#45;&gt;ProfileLink -->
<g id="edge14" class="edge"><title>Candidate&#45;&gt;ProfileLink</title>
<path fill="none" stroke="#9c99d4" d="M593.277,-172.926C605.4,-164.49 619.789,-155.182 633.571,-148 662.177,-133.092 695.772,-119.901 723.103,-110.176"/>
<ellipse fill="none" stroke="#9c99d4" cx="589.689" cy="-175.461" rx="4.00002" ry="4.00002"/>
<polygon fill="#9c99d4" stroke="#9c99d4" points="723.43,-110.062 734.356,-111.001 728.149,-108.408 732.868,-106.754 732.868,-106.754 732.868,-106.754 728.149,-108.408 731.379,-102.507 723.43,-110.062 723.43,-110.062"/>
</g>
<!-- Cat -->
<g id="node12" class="node"><title>Cat</title>
<ellipse fill="none" stroke="black" cx="563.571" cy="-93" rx="28.9914" ry="18.3848"/>
<text text-anchor="middle" x="563.571" y="-89.4" font-family="Times Roman,serif" font-size="14.00">Cat</text>
</g>
<!-- Candidate&#45;&gt;Cat -->
<g id="edge18" class="edge"><title>Candidate&#45;&gt;Cat</title>
<path fill="none" stroke="#f5d0f4" d="M563.571,-168.015C563.571,-153.835 563.571,-136.445 563.571,-121.98"/>
<ellipse fill="none" stroke="#f5d0f4" cx="563.571" cy="-172.292" rx="4" ry="4"/>
<polygon fill="#f5d0f4" stroke="#f5d0f4" points="563.571,-121.59 568.071,-111.59 563.571,-116.59 563.571,-111.59 563.571,-111.59 563.571,-111.59 563.571,-116.59 559.071,-111.59 563.571,-121.59 563.571,-121.59"/>
</g>
<!-- FunnyLink -->
<g id="node13" class="node"><title>FunnyLink</title>
<ellipse fill="none" stroke="black" cx="957.571" cy="-93" rx="62.9325" ry="18.3848"/>
<text text-anchor="middle" x="957.571" y="-89.4" font-family="Times Roman,serif" font-size="14.00">FunnyLink</text>
</g>
<!-- Candidate&#45;&gt;FunnyLink -->
<g id="edge16" class="edge"><title>Candidate&#45;&gt;FunnyLink</title>
<path fill="none" stroke="#b47f94" d="M590.786,-172.563C603.134,-163.523 618.359,-153.865 633.571,-148 737.08,-108.089 771.7,-133.314 880.571,-112 887.107,-110.72 893.923,-109.246 900.679,-107.696"/>
<ellipse fill="none" stroke="#b47f94" cx="587.436" cy="-175.087" rx="4.00002" ry="4.00002"/>
<polygon fill="#b47f94" stroke="#b47f94" points="900.761,-107.677 911.526,-109.765 905.628,-106.531 910.495,-105.385 910.495,-105.385 910.495,-105.385 905.628,-106.531 909.464,-101.005 900.761,-107.677 900.761,-107.677"/>
</g>
<!-- Recruiter -->
<g id="node9" class="node"><title>Recruiter</title>
<ellipse fill="none" stroke="black" cx="698.571" cy="-195" rx="56.0679" ry="18.3848"/>
<text text-anchor="middle" x="698.571" y="-191.4" font-family="Times Roman,serif" font-size="14.00">Recruiter</text>
</g>
<!-- Cat&#45;&gt;Picture -->
<g id="edge20" class="edge"><title>Cat&#45;&gt;Picture</title>
<path fill="none" stroke="#a58f75" d="M534.117,-77.2847C531.272,-76.0682 528.394,-74.9472 525.571,-74 443.945,-46.6161 344.813,-31.7011 284.498,-24.5465"/>
<ellipse fill="none" stroke="#a58f75" cx="537.875" cy="-79.0072" rx="4.00002" ry="4.00002"/>
<polygon fill="#a58f75" stroke="#a58f75" points="284.364,-24.5311 274.948,-18.9116 279.397,-23.9564 274.43,-23.3817 274.43,-23.3817 274.43,-23.3817 279.397,-23.9564 273.913,-27.8519 284.364,-24.5311 284.364,-24.5311"/>
</g>
<!-- Cat&#45;&gt;Skill -->
<g id="edge22" class="edge"><title>Cat&#45;&gt;Skill</title>
<path fill="none" stroke="#1e83d1" d="M594.045,-77.7269C596.589,-76.4627 599.123,-75.2074 601.571,-74 628.108,-60.9079 658.243,-46.2508 680.716,-35.3615"/>
<ellipse fill="none" stroke="#1e83d1" cx="590.039" cy="-79.7229" rx="4.00002" ry="4.00002"/>
<polygon fill="#1e83d1" stroke="#1e83d1" points="680.844,-35.2992 691.806,-34.9911 685.345,-33.1201 689.845,-30.9409 689.845,-30.9409 689.845,-30.9409 685.345,-33.1201 687.884,-26.8908 680.844,-35.2992 680.844,-35.2992"/>
</g>
</g>
</svg>
